<svg id="Capa_1" data-name="Capa 1" xmlns="http://www.w3.org/2000/svg" viewBox="0 0 550 31.95"><defs><style>.cls-1{fill:#495e67;}</style></defs><title>asphalt</title><path class="cls-1" d="M550,7.55l-.74,0c-9.88,0-9.88-7.57-19.77-7.57s-9.89,7.57-19.77,7.57S499.84,0,489.95,0s-9.88,7.57-19.77,7.57S460.3,0,450.41,0s-9.88,7.57-19.77,7.57S420.76,0,410.88,0,401,7.57,391.1,7.57,381.22,0,371.34,0C362,0,361.47,6.81,353,7.51,344.52,6.81,344,0,334.66,0c-9.89,0-9.89,7.57-19.78,7.57S305,0,295.11,0s-9.89,7.57-19.77,7.57S265.45,0,255.56,0s-9.88,7.57-19.77,7.57S225.91,0,216,0s-9.88,7.57-19.77,7.57S186.38,0,176.49,0s-9.89,7.57-19.77,7.57S146.84,0,136.95,0s-9.88,7.57-19.77,7.57S107.3,0,97.41,0,87.53,7.57,77.64,7.57,67.76,0,57.88,0,48,7.57,38.1,7.57,28.22,0,18.34,0C9,0,8.47,6.81,0,7.51V31.95H550Z"/></svg>