<?xml version="1.0" encoding="utf-8"?>
<!-- Generator: Adobe Illustrator 21.0.2, SVG Export Plug-In . SVG Version: 6.00 Build 0)  -->
<svg version="1.1" id="Capa_1" xmlns="http://www.w3.org/2000/svg" xmlns:xlink="http://www.w3.org/1999/xlink" x="0px" y="0px"
	 viewBox="0 0 221.064 91.791" enable-background="new 0 0 221.064 91.791" xml:space="preserve">
<g id="Automóvil">
</g>
<rect x="-610.227" y="111.404" fill-rule="evenodd" clip-rule="evenodd" fill="#B0B256" width="550" height="199.116"/>
<path fill="#495E67" d="M-60.227,291.315c-0.242,0.01-0.487,0.018-0.743,0.018c-9.882,0-9.882-7.567-19.766-7.567
	c-9.887,0-9.887,7.567-19.771,7.567c-9.886,0-9.886-7.567-19.771-7.567c-9.883,0-9.883,7.567-19.768,7.567
	c-9.886,0-9.886-7.567-19.77-7.567s-9.884,7.567-19.771,7.567c-9.883,0-9.883-7.567-19.766-7.567c-9.888,0-9.888,7.567-19.772,7.567
	c-9.882,0-9.882-7.567-19.768-7.567c-9.379,0-9.863,6.811-18.336,7.505c-8.477-0.694-8.961-7.505-18.344-7.505
	c-9.889,0-9.889,7.567-19.775,7.567c-9.885,0-9.885-7.567-19.772-7.567c-9.886,0-9.886,7.567-19.771,7.567
	c-9.888,0-9.888-7.567-19.773-7.567c-9.885,0-9.885,7.567-19.771,7.567c-9.886,0-9.886-7.567-19.77-7.567
	c-9.883,0-9.883,7.567-19.768,7.567c-9.881,0-9.881-7.567-19.765-7.567c-9.887,0-9.887,7.567-19.77,7.567
	c-9.886,0-9.886-7.567-19.772-7.567c-9.883,0-9.883,7.567-19.768,7.567c-9.886,0-9.886-7.567-19.77-7.567
	c-9.884,0-9.884,7.567-19.771,7.567c-9.883,0-9.883-7.567-19.766-7.567c-9.888,0-9.888,7.567-19.773,7.567
	c-9.882,0-9.882-7.567-19.768-7.567c-9.379,0-9.864,6.811-18.336,7.505v24.44h550V291.315z"/>
<g>
	<g>
		<g>
			<polyline fill-rule="evenodd" clip-rule="evenodd" fill="#014262" points="-596.261,260.763 -575.199,260.263 -535.669,262.677 
				-439.945,261.852 -402.551,266.448 -398.202,256.451 -404.398,231.483 -575.645,231.483 			"/>
			<path fill="#0081BA" d="M-523.594,243.915c0,0-1.218-27.752-78.521-21.483l5.475,25.958c0,0-6.694,8.952-1.825,12.533
				l23.267-0.66c-0.285-1.362-0.438-2.775-0.438-4.225c0-11.341,9.194-20.534,20.536-20.534c11.341,0,20.535,9.193,20.535,20.534
				c0,2.326-0.392,4.556-1.104,6.639l95.724-0.825c-0.545-1.844-0.842-3.792-0.842-5.813c0-11.341,9.193-20.534,20.537-20.534
				c11.34,0,20.533,9.193,20.533,20.534c0,3.8-1.035,7.356-2.834,10.409l5.566,0.742l-1.218-10.739l-0.608-8.954l6.088-18.8
				c0,0,9.13-4.476,9.13-14.323C-383.593,214.373-472.464,210.794-523.594,243.915z"/>
			<ellipse fill="#F8B133" stroke="#005980" cx="-601.196" cy="228.947" rx="3.461" ry="1.971"/>
			<ellipse fill="#F8B133" stroke="#005980" cx="-600.182" cy="232.299" rx="3.461" ry="1.971"/>
			<ellipse fill="#F8B133" stroke="#005980" cx="-599.169" cy="235.466" rx="3.462" ry="1.97"/>
			<path fill="#FFFFFF" d="M-533.678,260.763h88.77c0,0-7.518-7.369,0.358-11.054c0,0-9.667-1.055-6.803,6.843L-533.678,260.763z"/>
			<path fill="#0081BA" d="M-450.551,218.848l-6.694-24.166l8.781,0.769c0,0-61.738-41.054-122.002,29.665l28.609,7.162
				c0,0-7.913-39.388,79.133-37.596L-450.551,218.848z"/>
			<path fill="#FFFFFF" d="M-391.7,217.558c0,0-71.399-4.363-131.129,28.503c0,0,60.521-28.503,125.392-26.761L-391.7,217.558z"/>
			<path fill="#FFFFFF" d="M-524.607,245.479c0,0-0.992-18.907-45.096-21.812C-569.703,223.666-534.102,227.447-524.607,245.479z"/>
			<path fill="#005980" d="M-456.984,255.662c0,0-0.742-0.895,0.246-5.369l-79.941,5.817L-456.984,255.662z"/>
			<ellipse fill="#FFFFFF" stroke="#005980" stroke-width="0.9747" cx="-548.248" cy="215.717" rx="3.959" ry="5.818"/>
			<polyline fill="#0081BA" points="-458.192,220.323 -465.262,214.379 -463.443,208.141 -471.322,221.509 -466.273,216.756 
				-459.605,220.914 			"/>
			<path fill="#005980" d="M-497.062,224.981l-1.733-13.572c1.214-2.081,4.848-0.594,4.848-0.594l3.584,13.47l15.203-1.587h0.402
				c-25.047,4.454-48.48,19.607-48.48,19.607c-2.22-10.994-11.716-13.369-11.716-13.369L-497.062,224.981z"/>
			<path fill="#0081BA" d="M-572.93,222.698c0,0-6.263-18.718-13.737-23.471c0,0,9.495,10.991,12.122,23.471H-572.93z"/>
			<ellipse fill="#0081BA" cx="-586.263" cy="199.227" rx="1.212" ry="1.781"/>
			<path fill="#005980" d="M-394.733,228.566c0,0-10.822-2.395-45.259,2.396c0,0,41.768-2.222,41.188,0.345
				c-0.584,2.566-16.389,2.311-16.389,2.311s16.038,0.597,14.758,3.336c-1.278,2.737-6.708,2.102-6.708,2.102l7.522,3.886
				c0,0,3.828-8.935,4.888-14.03"/>
			<path fill="#005980" d="M-597.934,225.822c0,0,25.616-5.566,51.814,9.415c0,0-32.312-1.926-48.903,7.491
				c0,0,8.587-9.415,31.437-10.272c0,0-15.718-4.067-32.164,1.284c0,0,1.892-4.496,25.033-4.923
				C-570.717,228.817-586.872,224.323-597.934,225.822z"/>
			<path fill="#005980" d="M-455.203,193.179c0,0-69.152-5.262-82.264,21.041C-537.467,214.22-532.361,184.914-455.203,193.179z"/>
		</g>
		<path fill="#F8B133" stroke="#005980" d="M-387.081,221.145c2.42-3.577,3.166-5.715,1.544-5.751
			c-1.886-0.04-5.705,2.905-8.123,6.48c-2.42,3.577-2.211,6.88-0.637,6.479C-392.735,227.946-389.496,224.723-387.081,221.145z"/>
	</g>
	<g>
		<g>
			<ellipse fill-rule="evenodd" clip-rule="evenodd" fill="#1D1D1B" cx="-418.102" cy="255.211" rx="19.156" ry="19.282"/>
			<ellipse fill-rule="evenodd" clip-rule="evenodd" fill="#CECEB8" cx="-418.102" cy="255.211" rx="13.238" ry="13.327"/>
			<g>
				<path fill-rule="evenodd" clip-rule="evenodd" fill="#BD1622" d="M-417.143,245.465c-0.527-3.868-1.39-3.868-1.917,0
					c-0.527,3.868-4.066,6.469-7.864,5.781c-3.799-0.689-4.064,0.141-0.592,1.842c3.473,1.701,4.824,5.91,3.004,9.354
					c-1.82,3.442-1.123,3.955,1.551,1.14c2.673-2.815,7.047-2.815,9.721,0c2.673,2.816,3.369,2.303,1.548-1.14
					c-1.821-3.443-0.47-7.652,3.004-9.354c3.474-1.701,3.208-2.53-0.591-1.842C-413.078,251.934-416.616,249.333-417.143,245.465z"
					/>
			</g>
			<ellipse fill-rule="evenodd" clip-rule="evenodd" fill="#B1B28F" cx="-418.102" cy="255.21" rx="4.504" ry="4.535"/>
		</g>
	</g>
	<g>
		<g>
			<ellipse fill-rule="evenodd" clip-rule="evenodd" fill="#1D1D1B" cx="-552.207" cy="256.109" rx="19.155" ry="19.282"/>
			<ellipse fill-rule="evenodd" clip-rule="evenodd" fill="#CECEB8" cx="-552.207" cy="256.108" rx="13.239" ry="13.327"/>
			<g>
				<path fill-rule="evenodd" clip-rule="evenodd" fill="#BD1622" d="M-551.248,246.363c-0.526-3.868-1.389-3.868-1.916,0
					c-0.527,3.868-4.066,6.469-7.865,5.78c-3.799-0.688-4.065,0.142-0.592,1.844c3.473,1.701,4.825,5.91,3.004,9.352
					c-1.82,3.442-1.122,3.955,1.551,1.14c2.674-2.815,7.048-2.815,9.721,0c2.673,2.815,3.369,2.303,1.549-1.14
					c-1.821-3.442-0.47-7.651,3.004-9.352c3.473-1.702,3.207-2.531-0.592-1.844C-547.183,252.831-550.721,250.231-551.248,246.363z"
					/>
			</g>
			<ellipse fill-rule="evenodd" clip-rule="evenodd" fill="#B1B28F" cx="-552.207" cy="256.108" rx="4.504" ry="4.534"/>
		</g>
	</g>
</g>
<rect x="-18.227" y="130.404" fill-rule="evenodd" clip-rule="evenodd" fill="#B0B256" width="550" height="199.116"/>
<path fill="#495E67" d="M531.773,379.678c-0.242,0.01-0.487,0.018-0.743,0.018c-9.882,0-9.882-7.567-19.766-7.567
	c-9.887,0-9.887,7.567-19.77,7.567c-9.886,0-9.886-7.567-19.772-7.567c-9.883,0-9.883,7.567-19.768,7.567
	c-9.886,0-9.886-7.567-19.77-7.567c-9.884,0-9.884,7.567-19.77,7.567c-9.883,0-9.883-7.567-19.766-7.567
	c-9.888,0-9.888,7.567-19.773,7.567c-9.882,0-9.882-7.567-19.768-7.567c-9.379,0-9.863,6.811-18.336,7.505
	c-8.477-0.694-8.961-7.505-18.344-7.505c-9.889,0-9.889,7.567-19.775,7.567c-9.885,0-9.885-7.567-19.772-7.567
	c-9.886,0-9.886,7.567-19.771,7.567c-9.888,0-9.888-7.567-19.773-7.567c-9.885,0-9.885,7.567-19.771,7.567
	c-9.886,0-9.886-7.567-19.77-7.567c-9.883,0-9.883,7.567-19.769,7.567c-9.881,0-9.881-7.567-19.765-7.567
	c-9.887,0-9.887,7.567-19.771,7.567c-9.886,0-9.886-7.567-19.771-7.567c-9.883,0-9.883,7.567-19.768,7.567
	c-9.886,0-9.886-7.567-19.77-7.567s-9.884,7.567-19.771,7.567c-9.883,0-9.883-7.567-19.766-7.567c-9.888,0-9.888,7.567-19.772,7.567
	c-9.882,0-9.882-7.567-19.768-7.567c-9.379,0-9.864,6.811-18.336,7.505v24.44h550V379.678z"/>
<g>
	<polyline fill-rule="evenodd" clip-rule="evenodd" fill="#FCF500" points="8.396,77.163 29.458,76.663 68.988,79.077 
		164.712,78.251 202.106,82.847 206.455,72.85 200.259,47.882 29.013,47.882 	"/>
	<path fill="#8E3C0E" d="M106.928,44.045l-1.732-13.572c1.214-2.081,4.848-0.594,4.848-0.594l3.584,13.47l15.203-1.587h0.402
		c-25.047,4.454-48.48,19.607-48.48,19.607C78.533,50.375,69.036,48,69.036,48L106.928,44.045z"/>
	<path fill="#464544" d="M81.063,60.315c0,0-1.218-27.752-78.521-21.483l5.475,25.958c0,0-6.694,8.952-1.825,12.533l23.267-0.66
		c-0.285-1.362-0.438-2.775-0.438-4.225c0-11.341,9.194-20.534,20.536-20.534c11.341,0,20.535,9.193,20.535,20.534
		c0,2.326-0.392,4.556-1.104,6.639l95.724-0.825c-0.545-1.844-0.842-3.792-0.842-5.813c0-11.341,9.193-20.534,20.537-20.534
		c11.34,0,20.533,9.193,20.533,20.534c0,3.8-1.035,7.356-2.834,10.409l5.566,0.742l-1.218-10.739l-0.608-8.954l6.088-18.8
		c0,0,9.13-4.476,9.13-14.323C221.064,30.773,132.193,27.194,81.063,60.315z"/>
	<ellipse fill="#EDFF00" stroke="#000000" stroke-width="0.25" cx="3.462" cy="45.346" rx="3.461" ry="1.971"/>
	
		<ellipse fill="#EDFF00" stroke="#000000" stroke-width="0.25" stroke-miterlimit="10" cx="4.475" cy="48.698" rx="3.461" ry="1.971"/>
	<ellipse fill="#EDFF00" stroke="#000000" stroke-width="0.25" cx="5.488" cy="51.866" rx="3.462" ry="1.97"/>
	<path fill="#FFFFFF" d="M70.979,77.163h88.769c0,0-7.518-7.369,0.358-11.054c0,0-9.667-1.055-6.803,6.843L70.979,77.163z"/>
	<path fill="#890404" d="M154.106,35.247l-6.694-24.166l8.781,0.769c0,0-61.738-41.054-122.002,29.665l28.609,7.162
		c0,0-7.913-39.388,79.133-37.596L154.106,35.247z"/>
	<path fill="#FFFFFF" d="M212.957,33.958c0,0-71.399-4.363-131.129,28.503c0,0,60.521-28.503,125.392-26.761L212.957,33.958z"/>
	<path fill="#FFFFFF" d="M80.05,61.878c0,0-0.992-18.907-45.096-21.812C34.954,40.066,70.556,43.846,80.05,61.878z"/>
	<path fill="#F91515" d="M147.673,72.061c0,0-0.742-0.896,0.246-5.369l-79.941,5.817L147.673,72.061z"/>
	<ellipse fill="#FFFFFF" stroke="#005980" stroke-width="0.9747" cx="56.409" cy="32.117" rx="3.959" ry="5.818"/>
	<polyline points="146.465,36.722 139.395,30.779 141.214,24.54 133.335,37.909 138.384,33.156 145.052,37.313 	"/>
	<path fill="#1D1D1B" d="M31.728,39.097c0,0-6.263-18.718-13.737-23.471c0,0,9.495,10.991,12.122,23.471H31.728z"/>
	<ellipse fill="#0081BA" cx="18.394" cy="15.626" rx="1.212" ry="1.781"/>
	<path fill="#F91515" d="M209.925,44.965c0,0-10.822-2.394-45.259,2.396c0,0,41.768-2.222,41.188,0.345
		c-0.584,2.566-16.389,2.311-16.389,2.311s16.038,0.597,14.758,3.336c-1.278,2.737-6.708,2.102-6.708,2.102l7.522,3.886
		c0,0,3.828-8.935,4.888-14.03"/>
	<path fill="#FF0000" d="M6.724,42.221c0,0,25.616-5.566,51.814,9.415c0,0-32.312-1.926-48.903,7.491c0,0,8.587-9.415,31.437-10.272
		c0,0-15.718-4.067-32.164,1.284c0,0,1.892-4.496,25.033-4.923C33.94,45.216,17.785,40.722,6.724,42.221z"/>
	<path fill="#F7E831" d="M149.454,9.579c0,0-69.152-5.262-82.264,21.041C67.19,30.62,72.296,1.314,149.454,9.579z"/>
	<path fill="#F8B133" stroke="#005980" d="M217.576,37.544c2.42-3.577,3.166-5.715,1.544-5.751c-1.886-0.04-5.705,2.905-8.123,6.48
		c-2.42,3.577-2.211,6.88-0.637,6.48C211.922,44.345,215.161,41.122,217.576,37.544z"/>
</g>
<g>
	<g>
		<ellipse fill-rule="evenodd" clip-rule="evenodd" fill="#1D1D1B" cx="162.894" cy="101.277" rx="19.156" ry="19.282"/>
		<ellipse fill-rule="evenodd" clip-rule="evenodd" fill="#CECEB8" cx="162.894" cy="101.277" rx="13.238" ry="13.327"/>
		<g>
			<path fill-rule="evenodd" clip-rule="evenodd" fill="#FFB103" d="M163.853,91.531c-0.527-3.868-1.389-3.868-1.917,0
				s-4.067,6.469-7.865,5.781c-3.798-0.688-4.064,0.141-0.591,1.842s4.825,5.91,3.004,9.353c-1.821,3.443-1.123,3.956,1.55,1.14
				c2.673-2.816,7.048-2.816,9.721,0c2.673,2.816,3.37,2.302,1.548-1.14c-1.821-3.443-0.47-7.651,3.004-9.353
				c3.473-1.702,3.208-2.531-0.591-1.842C167.918,98,164.38,95.399,163.853,91.531z"/>
		</g>
		<ellipse fill-rule="evenodd" clip-rule="evenodd" fill="#B1B28F" cx="162.894" cy="101.276" rx="4.504" ry="4.535"/>
	</g>
</g>
<g>
	<g>
		<ellipse fill-rule="evenodd" clip-rule="evenodd" fill="#1D1D1B" cx="28.789" cy="102.175" rx="19.155" ry="19.282"/>
		<ellipse fill-rule="evenodd" clip-rule="evenodd" fill="#CECEB8" cx="28.789" cy="102.174" rx="13.239" ry="13.327"/>
		<g>
			<path fill-rule="evenodd" clip-rule="evenodd" fill="#FFB103" d="M29.748,92.429c-0.527-3.868-1.389-3.868-1.917,0
				c-0.527,3.868-4.067,6.469-7.865,5.781c-3.798-0.688-4.065,0.141-0.592,1.843s4.825,5.911,3.004,9.353
				c-1.821,3.442-1.123,3.955,1.551,1.14c2.673-2.815,7.048-2.815,9.72,0c2.673,2.816,3.369,2.303,1.548-1.14
				c-1.821-3.442-0.469-7.651,3.004-9.353c3.473-1.702,3.207-2.531-0.591-1.843C33.814,98.898,30.275,96.297,29.748,92.429z"/>
		</g>
		<ellipse fill-rule="evenodd" clip-rule="evenodd" fill="#B1B28F" cx="28.789" cy="102.174" rx="4.504" ry="4.534"/>
	</g>
</g>
<path fill="#F8B133" stroke="#005980" d="M512.791,33.733c2.42-3.577,3.166-5.715,1.544-5.751c-1.886-0.04-5.705,2.905-8.123,6.48
	c-2.42,3.577-2.211,6.88-0.637,6.48C507.137,40.534,510.376,37.312,512.791,33.733z"/>
<g>
	<g>
		<ellipse fill-rule="evenodd" clip-rule="evenodd" fill="#1D1D1B" cx="330.838" cy="62.454" rx="19.156" ry="19.282"/>
		<ellipse fill-rule="evenodd" clip-rule="evenodd" fill="#CECEB8" cx="330.837" cy="62.453" rx="13.238" ry="13.327"/>
		<g>
			<path fill-rule="evenodd" clip-rule="evenodd" fill="#BD1622" d="M331.796,52.707c-0.527-3.868-1.389-3.868-1.917,0
				s-4.067,6.469-7.865,5.781s-4.064,0.141-0.591,1.842c3.473,1.702,4.825,5.91,3.004,9.353c-1.821,3.443-1.123,3.956,1.55,1.14
				c2.673-2.816,7.048-2.816,9.721,0c2.673,2.816,3.37,2.302,1.548-1.14c-1.821-3.443-0.47-7.651,3.004-9.353
				c3.474-1.702,3.208-2.531-0.591-1.842S332.323,56.575,331.796,52.707z"/>
		</g>
		<ellipse fill-rule="evenodd" clip-rule="evenodd" fill="#B1B28F" cx="330.837" cy="62.452" rx="4.504" ry="4.535"/>
	</g>
</g>
</svg>
