<?xml version="1.0" encoding="utf-8"?>
<!-- Generator: Adobe Illustrator 21.0.2, SVG Export Plug-In . SVG Version: 6.00 Build 0)  -->
<svg version="1.1" id="Vector_Graphics" xmlns="http://www.w3.org/2000/svg" xmlns:xlink="http://www.w3.org/1999/xlink" x="0px"
	 y="0px" viewBox="0 0 656 491" enable-background="new 0 0 656 491" xml:space="preserve">
<g>
	<path fill-rule="evenodd" clip-rule="evenodd" fill="#282828" d="M314.379,414.128c0,0,11.842,15.057,13.53,34.304
		c0,0,1.846-17.002,11.913-28.169S314.379,414.128,314.379,414.128z"/>
	<g>
		<g>
			<path fill-rule="evenodd" clip-rule="evenodd" fill="#282828" d="M442.377,215.265c42.738-16.152,84.769-4.25,93.877,26.582
				c9.107,30.833-18.154,68.924-60.893,85.077c-42.738,16.151-84.768,4.25-93.877-26.583
				C372.375,269.508,399.641,231.417,442.377,215.265z"/>
			<path fill-rule="evenodd" clip-rule="evenodd" fill="#282828" d="M456.914,341.648c28.338,18.507,42.883,50.023,32.484,70.394
				c-10.398,20.371-41.803,21.883-70.141,3.377c-28.338-18.506-42.883-50.023-32.484-70.396
				C397.172,324.653,428.574,323.143,456.914,341.648z"/>
			<path fill-rule="evenodd" clip-rule="evenodd" fill="#BDBFC1" d="M435.127,225.271c35.701-13.55,70.615-2.97,77.984,23.629
				c7.373,26.599-15.594,59.145-51.291,72.695c-35.699,13.55-70.615,2.97-77.984-23.628
				C376.465,271.367,399.43,238.82,435.127,225.271z"/>
			<linearGradient id="SVGID_1_" gradientUnits="userSpaceOnUse" x1="435.0902" y1="225.9866" x2="458.3362" y2="312.7421">
				<stop  offset="0" style="stop-color:#FFFFFF"/>
				<stop  offset="1" style="stop-color:#D1D3D4"/>
			</linearGradient>
			<path fill-rule="evenodd" clip-rule="evenodd" fill="url(#SVGID_1_)" d="M435.127,225.273c31.555-11.977,62.488-5.1,74.34,15.023
				c3.244,28.484-21.641,60.996-58.859,75.121c-16.865,6.4-33.57,8.007-47.889,5.494c-9.295-5.037-16.082-12.831-18.883-22.945
				C376.463,271.367,399.43,238.819,435.127,225.273z"/>
			<path fill-rule="evenodd" clip-rule="evenodd" fill="#BDBFC1" d="M448.029,344.644c24.912,15.258,37.697,41.246,28.557,58.041
				c-9.141,16.795-36.748,18.042-61.662,2.783c-24.912-15.258-37.697-41.244-28.557-58.041
				C395.508,330.632,423.115,329.386,448.029,344.644z"/>
			<linearGradient id="SVGID_2_" gradientUnits="userSpaceOnUse" x1="398.6447" y1="336.7527" x2="469.1429" y2="407.2509">
				<stop  offset="0" style="stop-color:#FFFFFF"/>
				<stop  offset="1" style="stop-color:#D1D3D4"/>
			</linearGradient>
			<path fill-rule="evenodd" clip-rule="evenodd" fill="url(#SVGID_2_)" d="M448.027,344.644
				c24.916,15.258,37.699,41.246,28.559,58.041c-0.523,0.963-1.111,1.873-1.754,2.734c-14.17,7.078-36.193,4.584-56.584-7.903
				c-18.717-11.466-31.242-28.401-34.185-43.907c0.484-2.164,1.244-4.234,2.305-6.182
				C395.508,330.63,423.117,329.386,448.027,344.644z"/>
		</g>
		<g>
			<path fill-rule="evenodd" clip-rule="evenodd" fill="#282828" d="M213.623,215.265c-42.737-16.152-84.768-4.25-93.877,26.582
				c-9.108,30.833,18.155,68.924,60.893,85.077c42.738,16.151,84.77,4.25,93.877-26.583
				C283.624,269.508,256.362,231.417,213.623,215.265z"/>
			<path fill-rule="evenodd" clip-rule="evenodd" fill="#282828" d="M199.088,341.648c-28.339,18.507-42.883,50.023-32.485,70.394
				c10.397,20.371,41.802,21.883,70.14,3.377c28.339-18.506,42.883-50.023,32.485-70.396
				C258.831,324.653,227.426,323.143,199.088,341.648z"/>
			<path fill-rule="evenodd" clip-rule="evenodd" fill="#BDBFC1" d="M220.873,225.271c-35.699-13.55-70.614-2.97-77.984,23.629
				c-7.371,26.599,15.594,59.145,51.293,72.695c35.697,13.55,70.613,2.97,77.984-23.628
				C279.537,271.367,256.572,238.82,220.873,225.271z"/>
			<linearGradient id="SVGID_3_" gradientUnits="userSpaceOnUse" x1="221.6295" y1="226.3119" x2="197.0034" y2="312.1932">
				<stop  offset="0" style="stop-color:#FFFFFF"/>
				<stop  offset="1" style="stop-color:#D1D3D4"/>
			</linearGradient>
			<path fill-rule="evenodd" clip-rule="evenodd" fill="url(#SVGID_3_)" d="M220.873,225.273
				c-31.554-11.977-62.487-5.1-74.339,15.023c-3.244,28.484,21.641,60.996,58.859,75.121c16.863,6.4,33.57,8.007,47.887,5.494
				c9.297-5.037,16.083-12.831,18.886-22.945C279.539,271.367,256.573,238.819,220.873,225.273z"/>
			<path fill-rule="evenodd" clip-rule="evenodd" fill="#BDBFC1" d="M207.972,344.644c-24.914,15.258-37.699,41.246-28.559,58.041
				c9.141,16.795,36.749,18.042,61.662,2.783c24.913-15.258,37.7-41.244,28.559-58.041
				C260.493,330.632,232.886,329.386,207.972,344.644z"/>
			<linearGradient id="SVGID_4_" gradientUnits="userSpaceOnUse" x1="257.5809" y1="337.6932" x2="185.6905" y2="407.117">
				<stop  offset="0" style="stop-color:#FFFFFF"/>
				<stop  offset="1" style="stop-color:#D1D3D4"/>
			</linearGradient>
			<path fill-rule="evenodd" clip-rule="evenodd" fill="url(#SVGID_4_)" d="M207.972,344.644
				c-24.914,15.258-37.699,41.246-28.559,58.041c0.525,0.963,1.113,1.873,1.754,2.734c14.172,7.078,36.195,4.584,56.585-7.903
				c18.718-11.466,31.243-28.401,34.187-43.907c-0.486-2.164-1.246-4.234-2.307-6.182
				C260.493,330.63,232.884,329.386,207.972,344.644z"/>
		</g>
	</g>
	<path fill-rule="evenodd" clip-rule="evenodd" fill="#282828" d="M327.999,420.577c47.419,0,86.094-46.77,86.094-104.114
		c0-57.344-38.676-104.114-86.094-104.114c-47.419,0-86.094,46.771-86.094,104.114C241.906,373.808,280.581,420.577,327.999,420.577
		z"/>
	<linearGradient id="SVGID_5_" gradientUnits="userSpaceOnUse" x1="327.9997" y1="435.1893" x2="327.9997" y2="338.8901">
		<stop  offset="0" style="stop-color:#D59B21"/>
		<stop  offset="1" style="stop-color:#B88726"/>
	</linearGradient>
	<path fill-rule="evenodd" clip-rule="evenodd" fill="url(#SVGID_5_)" d="M327.999,413.114c44.02,0,79.922-43.417,79.922-96.651
		c0-53.233-35.902-96.651-79.922-96.651c-44.019,0-79.922,43.418-79.922,96.651C248.078,369.697,283.98,413.114,327.999,413.114z"/>
	<path fill-rule="evenodd" clip-rule="evenodd" fill="#FDB92E" d="M380.711,386.695c16.68-17.459,27.211-43.068,27.211-71.609
		c0-50.224-32.603-91.366-73.953-95.006c-35.602,3.64-67.477,44.782-67.477,95.006C266.492,372.597,324.575,445.448,380.711,386.695
		z"/>
	<path fill-rule="evenodd" clip-rule="evenodd" fill="#282828" d="M328,212.349c-31.007,0-58.182,19.826-73.339,49.565
		c22.026,4.799,46.945,7.503,73.338,7.503c26.393,0,51.313-2.706,73.338-7.504C386.18,232.175,359.008,212.349,328,212.349
		L328,212.349z M242.8,301.463c-0.586,4.898-0.894,9.904-0.894,15l0.002,0.102c17.781,4.068,49.686,6.779,86.091,6.779
		c36.405,0,68.309-2.711,86.092-6.779l0.002-0.102c0-5.096-0.309-10.102-0.895-15c-17.945-3.956-49.396-6.58-85.2-6.58
		C292.198,294.883,260.746,297.508,242.8,301.463L242.8,301.463z M248.269,355.796c2.242,6.637,5.027,12.934,8.301,18.805
		c18.281,2.574,43.537,4.167,71.43,4.167c27.893,0,53.147-1.593,71.43-4.167c3.273-5.871,6.057-12.168,8.299-18.805
		c-18.486-3.34-47.326-5.491-79.729-5.491C295.596,350.305,266.757,352.456,248.269,355.796z"/>
	<defs>
		<filter id="Adobe_OpacityMaskFilter" filterUnits="userSpaceOnUse" x="266.492" y="220.08" width="141.43" height="188.336">
			<feFlood  style="flood-color:white;flood-opacity:1" result="back"/>
			<feBlend  in="SourceGraphic" in2="back" mode="normal"/>
		</filter>
	</defs>
	<mask maskUnits="userSpaceOnUse" x="266.492" y="220.08" width="141.43" height="188.336" id="SVGID_6_">
		<g filter="url(#Adobe_OpacityMaskFilter)">
			<defs>
				<filter id="Adobe_OpacityMaskFilter_1_" filterUnits="userSpaceOnUse" x="266.492" y="220.08" width="141.43" height="188.336">
					<feFlood  style="flood-color:white;flood-opacity:1" result="back"/>
					<feBlend  in="SourceGraphic" in2="back" mode="normal"/>
				</filter>
			</defs>
			<mask maskUnits="userSpaceOnUse" x="266.492" y="220.08" width="141.43" height="188.336" id="SVGID_6_">
				<g filter="url(#Adobe_OpacityMaskFilter_1_)">
				</g>
			</mask>
			<linearGradient id="SVGID_7_" gradientUnits="userSpaceOnUse" x1="287.0996" y1="314.2483" x2="428.5298" y2="314.2483">
				<stop  offset="0" style="stop-color:#000000"/>
				<stop  offset="1" style="stop-color:#FFFFFF"/>
			</linearGradient>
			<path mask="url(#SVGID_6_)" fill-rule="evenodd" clip-rule="evenodd" fill="url(#SVGID_7_)" d="M380.711,386.695
				c16.68-17.459,27.211-43.068,27.211-71.609c0-50.224-32.603-91.366-73.953-95.006c-35.602,3.64-67.477,44.782-67.477,95.006
				C266.492,372.597,324.575,445.448,380.711,386.695z"/>
		</g>
	</mask>
	<linearGradient id="SVGID_8_" gradientUnits="userSpaceOnUse" x1="287.0996" y1="314.2483" x2="428.5298" y2="314.2483">
		<stop  offset="0" style="stop-color:#FFFFFF"/>
		<stop  offset="1" style="stop-color:#FFFFFF"/>
	</linearGradient>
	<path fill-rule="evenodd" clip-rule="evenodd" fill="url(#SVGID_8_)" d="M380.711,386.695
		c16.68-17.459,27.211-43.068,27.211-71.609c0-50.224-32.603-91.366-73.953-95.006c-35.602,3.64-67.477,44.782-67.477,95.006
		C266.492,372.597,324.575,445.448,380.711,386.695z"/>
	<g>
		<path fill-rule="evenodd" clip-rule="evenodd" fill="#282828" d="M327.999,268.108c44.613,0,80.999-31.531,80.999-70.191
			c0-38.659-36.387-70.19-80.999-70.19c-44.612,0-80.999,31.531-80.999,70.19C246.999,236.577,283.386,268.108,327.999,268.108z"/>
		<linearGradient id="SVGID_9_" gradientUnits="userSpaceOnUse" x1="300.8074" y1="209.9096" x2="522.1089" y2="158.8181">
			<stop  offset="0" style="stop-color:#B88726"/>
			<stop  offset="1" style="stop-color:#FFFFFF"/>
		</linearGradient>
		<path fill-rule="evenodd" clip-rule="evenodd" fill="url(#SVGID_9_)" d="M327.999,260.608c36.706,0,66.645-25.595,66.645-56.977
			c0-31.382-29.939-56.977-66.645-56.977c-36.707,0-66.645,25.595-66.645,56.977C261.354,235.014,291.292,260.608,327.999,260.608z"
			/>
		<path fill-rule="evenodd" clip-rule="evenodd" fill="#FDB92E" d="M336.307,255.841c32.131,0,58.338-24.524,58.338-54.593
			c0-30.068-26.207-54.593-58.338-54.593c-32.13,0-58.336,24.524-58.336,54.593C277.97,231.316,304.176,255.841,336.307,255.841z"/>
		<linearGradient id="SVGID_10_" gradientUnits="userSpaceOnUse" x1="322.1171" y1="204.7859" x2="401.2728" y2="185.0502">
			<stop  offset="0" style="stop-color:#FDB913"/>
			<stop  offset="1" style="stop-color:#FFFFFF"/>
		</linearGradient>
		<path fill-rule="evenodd" clip-rule="evenodd" fill="url(#SVGID_10_)" d="M336.307,255.841c32.131,0,58.338-24.524,58.338-54.593
			c0-30.068-26.207-54.593-58.338-54.593c-32.13,0-58.336,24.524-58.336,54.593C277.97,231.316,304.176,255.841,336.307,255.841z"/>
		<path fill="#282828" d="M311.554,232.205c2.212,1.685,4.717,3.03,7.402,3.998c4.098,1.478,8.618,2.073,13.169,1.65
			c3.539-0.33,6.93-1.262,9.984-2.706c3.053-1.444,5.789-3.414,8.022-5.815c1.334-1.439,3.762-1.666,5.424-0.51
			c1.658,1.155,1.922,3.261,0.588,4.699c-2.867,3.083-6.395,5.617-10.346,7.488c-3.945,1.866-8.312,3.067-12.857,3.491
			c-5.855,0.545-11.673-0.222-16.944-2.121c-3.678-1.325-7.091-3.201-10.07-5.567c-0.2,0.017-0.403,0.025-0.609,0.025
			c-3.485,0-6.312-2.449-6.312-5.47c0-3.02,2.827-5.469,6.312-5.469c3.484,0,6.311,2.448,6.311,5.469
			C311.627,231.653,311.602,231.933,311.554,232.205z"/>
	</g>
	<g>
		<g>
			<path fill-rule="evenodd" clip-rule="evenodd" fill="#282828" d="M248.361,162.016c0,0,7.749-14.078-20.338-16.528
				c0,0,7.617-3.588,21.763-0.289c0,0,6.507-10.073-17.91-14.336c0,0,11.438-2.86,26.789,6.004
				c0.957-7.749-2.46-13.248-19.553-17.891c6.071-0.498,12.424-0.682,30.51,8.531c18.085,9.212,12.987-2.099,12.987-2.099
				s1.517-30.019-43.373-70.358l1.369-1.832c0,0,35.125,26.484,51.34,69.376C308.16,165.485,248.361,162.016,248.361,162.016z"/>
			<g>
				<path fill-rule="evenodd" clip-rule="evenodd" fill="#282828" d="M273.323,126.312c-22.498,6.528-35.85,31.574-29.82,55.94
					c6.028,24.366,29.153,38.825,51.65,32.297c22.498-6.529,35.849-31.574,29.82-55.94
					C318.945,134.241,295.821,119.782,273.323,126.312z"/>
				<path fill-rule="evenodd" clip-rule="evenodd" fill="#FEFEFE" d="M274.522,133.621c-20.026,5.622-32.157,26.228-27.095,46.024
					c5.064,19.796,25.401,31.286,45.428,25.664c20.027-5.622,32.156-26.229,27.094-46.024S294.548,127.999,274.522,133.621z"/>
				<path fill-rule="evenodd" clip-rule="evenodd" fill="#282828" d="M277.39,146.789c-15.457,4.485-24.489,22.258-20.176,39.696
					c4.314,17.438,20.342,27.939,35.798,23.454c15.457-4.486,24.49-22.259,20.175-39.697
					C308.874,152.804,292.846,142.304,277.39,146.789z"/>
				<path fill-rule="evenodd" clip-rule="evenodd" fill="#FEFEFE" d="M288.697,170.94c-5.839,1.695-9.305,8.195-7.74,14.52
					c1.566,6.324,7.566,10.076,13.406,8.383c5.839-1.695,9.304-8.195,7.739-14.52C300.538,172.999,294.536,169.246,288.697,170.94z"
					/>
				<path fill-rule="evenodd" clip-rule="evenodd" fill="#FEFEFE" d="M271.348,160.093c-3.778,1.097-6.02,5.302-5.008,9.395
					c1.013,4.091,4.896,6.52,8.674,5.422c3.778-1.096,6.02-5.301,5.008-9.393C279.009,161.425,275.126,158.997,271.348,160.093z"/>
			</g>
			
				<ellipse transform="matrix(0.9659 -0.2588 0.2588 0.9659 -4.9118 62.4832)" fill-rule="evenodd" clip-rule="evenodd" fill="#282828" cx="234.839" cy="49.896" rx="7.325" ry="7.325"/>
		</g>
		<g>
			<path fill-rule="evenodd" clip-rule="evenodd" fill="#282828" d="M407.639,162.016c0,0-7.748-14.078,20.338-16.528
				c0,0-7.617-3.588-21.762-0.289c0,0-6.508-10.073,17.908-14.336c0,0-11.435-2.86-26.787,6.004
				c-0.957-7.749,2.459-13.248,19.553-17.891c-6.072-0.498-12.426-0.682-30.512,8.531c-18.086,9.212-12.986-2.099-12.986-2.099
				s-1.518-30.019,43.373-70.358l-1.369-1.832c0,0-35.125,26.484-51.34,69.376C347.84,165.485,407.639,162.016,407.639,162.016z"/>
			<g>
				<path fill-rule="evenodd" clip-rule="evenodd" fill="#282828" d="M360.846,126.312c-22.498,6.528-35.849,31.574-29.82,55.94
					c6.029,24.366,29.154,38.825,51.65,32.297c22.498-6.529,35.85-31.574,29.82-55.94
					C406.469,134.241,383.344,119.782,360.846,126.312z"/>
				<path fill-rule="evenodd" clip-rule="evenodd" fill="#FEFEFE" d="M362.045,133.621c-20.027,5.622-32.156,26.228-27.094,46.024
					c5.062,19.796,25.4,31.286,45.428,25.664c20.025-5.622,32.156-26.229,27.094-46.024S382.07,127.999,362.045,133.621z"/>
				<path fill-rule="evenodd" clip-rule="evenodd" fill="#282828" d="M364.914,146.789c-15.459,4.485-24.49,22.258-20.176,39.696
					c4.314,17.438,20.34,27.939,35.797,23.454c15.457-4.486,24.488-22.259,20.176-39.697
					C396.396,152.804,380.369,142.304,364.914,146.789z"/>
				<path fill-rule="evenodd" clip-rule="evenodd" fill="#FEFEFE" d="M376.219,170.94c-5.838,1.695-9.305,8.195-7.738,14.52
					c1.564,6.324,7.566,10.076,13.404,8.383c5.84-1.695,9.305-8.195,7.74-14.52C388.06,172.999,382.059,169.246,376.219,170.94z"/>
				<path fill-rule="evenodd" clip-rule="evenodd" fill="#FEFEFE" d="M358.871,160.093c-3.777,1.097-6.02,5.302-5.008,9.395
					c1.012,4.091,4.897,6.52,8.674,5.422c3.777-1.096,6.02-5.301,5.008-9.393C366.531,161.425,362.648,158.997,358.871,160.093z"/>
			</g>
			
				<ellipse transform="matrix(0.2588 -0.9659 0.9659 0.2588 263.9831 443.8004)" fill-rule="evenodd" clip-rule="evenodd" fill="#282828" cx="421.161" cy="49.896" rx="7.325" ry="7.324"/>
		</g>
	</g>
</g>
</svg>
