<svg id="Capa_1" data-name="Capa 1" xmlns="http://www.w3.org/2000/svg" viewBox="0 0 221.06 91.79"><defs><style>.cls-1{fill:#014262;}.cls-1,.cls-9{fill-rule:evenodd;}.cls-2{fill:#0081ba;}.cls-3{fill:#f8b133;}.cls-3,.cls-6{stroke:#005980;}.cls-4,.cls-6{fill:#fff;}.cls-5{fill:#005980;}.cls-6{stroke-width:0.97px;}.cls-7{fill:#1d1d1b;}.cls-8{fill:#ceceb8;}.cls-9{fill:#bd1622;}.cls-10{fill:#b1b28f;}</style></defs><title>cadillac</title><polyline class="cls-1" points="8.4 77.16 29.46 76.66 68.99 79.08 164.71 78.25 202.11 82.85 206.46 72.85 200.26 47.88 29.01 47.88"/><path class="cls-2" d="M81.06,60.31S79.85,32.56,2.54,38.83L8,64.79s-6.69,9-1.83,12.53l23.27-.66A20.54,20.54,0,1,1,69,79.08l95.72-.83a20.53,20.53,0,1,1,37.39,4.6l5.57.74-1.22-10.74-.61-9,6.09-18.8s9.13-4.48,9.13-14.32C221.06,30.77,132.19,27.19,81.06,60.31Z"/><ellipse class="cls-3" cx="3.46" cy="45.35" rx="3.46" ry="1.97"/><ellipse class="cls-3" cx="4.47" cy="48.7" rx="3.46" ry="1.97"/><ellipse class="cls-3" cx="5.49" cy="51.87" rx="3.46" ry="1.97"/><path class="cls-4" d="M71,77.16h88.77s-7.52-7.37.36-11.05c0,0-9.67-1.05-6.8,6.84Z"/><path class="cls-2" d="M154.11,35.25l-6.69-24.17,8.78.77S94.46-29.2,34.19,41.52L62.8,48.68s-7.91-39.39,79.13-37.6Z"/><path class="cls-4" d="M213,34s-71.4-4.36-131.13,28.5c0,0,60.52-28.5,125.39-26.76Z"/><path class="cls-4" d="M80,61.88S79.06,43,35,40.07C35,40.07,70.56,43.85,80,61.88Z"/><path class="cls-5" d="M147.67,72.06s-.74-.9.25-5.37L68,72.51Z"/><ellipse class="cls-6" cx="56.41" cy="32.12" rx="3.96" ry="5.82"/><polyline class="cls-2" points="146.47 36.72 139.4 30.78 141.21 24.54 133.34 37.91 138.38 33.16 145.05 37.31"/><path class="cls-5" d="M107.59,41.38l-1.73-13.57c1.21-2.08,4.85-.59,4.85-.59l3.58,13.47,15.2-1.59h.4c-25,4.45-48.48,19.61-48.48,19.61A17.14,17.14,0,0,0,69.7,45.34Z"/><path class="cls-2" d="M31.73,39.1S25.46,20.38,18,15.63c0,0,9.5,11,12.12,23.47Z"/><ellipse class="cls-2" cx="18.39" cy="15.63" rx="1.21" ry="1.78"/><path class="cls-5" d="M209.92,45s-10.82-2.39-45.26,2.4c0,0,41.77-2.22,41.19.34S189.46,50,189.46,50s16,.6,14.76,3.34-6.71,2.1-6.71,2.1L205,59.34s3.83-8.93,4.89-14"/><path class="cls-5" d="M6.72,42.22s25.62-5.57,51.81,9.41c0,0-32.31-1.93-48.9,7.49,0,0,8.59-9.41,31.44-10.27,0,0-15.72-4.07-32.16,1.28,0,0,1.89-4.5,25-4.92C33.94,45.22,17.79,40.72,6.72,42.22Z"/><path class="cls-5" d="M149.45,9.58s-69.15-5.26-82.26,21C67.19,30.62,72.3,1.31,149.45,9.58Z"/><path class="cls-3" d="M217.58,37.54c2.42-3.58,3.17-5.71,1.54-5.75-1.89,0-5.71,2.91-8.12,6.48s-2.21,6.88-.64,6.48S215.16,41.12,217.58,37.54Z"/><ellipse class="cls-7" cx="186.56" cy="71.61" rx="19.16" ry="19.28"/><ellipse class="cls-8" cx="186.56" cy="71.61" rx="13.24" ry="13.33"/><path class="cls-9" d="M187.51,61.86c-.53-3.87-1.39-3.87-1.92,0a6.71,6.71,0,0,1-7.86,5.78c-3.8-.69-4.06.14-.59,1.84a6.82,6.82,0,0,1,3,9.35c-1.82,3.44-1.12,4,1.55,1.14a6.65,6.65,0,0,1,9.72,0c2.67,2.82,3.37,2.3,1.55-1.14a6.82,6.82,0,0,1,3-9.35c3.47-1.7,3.21-2.53-.59-1.84A6.71,6.71,0,0,1,187.51,61.86Z"/><ellipse class="cls-10" cx="186.55" cy="71.61" rx="4.5" ry="4.53"/><ellipse class="cls-7" cx="52.45" cy="72.51" rx="19.16" ry="19.28"/><ellipse class="cls-8" cx="52.45" cy="72.51" rx="13.24" ry="13.33"/><path class="cls-9" d="M53.41,62.76c-.53-3.87-1.39-3.87-1.92,0a6.71,6.71,0,0,1-7.87,5.78c-3.8-.69-4.06.14-.59,1.84a6.82,6.82,0,0,1,3,9.35c-1.82,3.44-1.12,4,1.55,1.14a6.65,6.65,0,0,1,9.72,0c2.67,2.82,3.37,2.3,1.55-1.14a6.82,6.82,0,0,1,3-9.35c3.47-1.7,3.21-2.53-.59-1.84A6.71,6.71,0,0,1,53.41,62.76Z"/><ellipse class="cls-10" cx="52.45" cy="72.51" rx="4.5" ry="4.53"/></svg>