<?xml version="1.0" encoding="utf-8"?>
<!-- Generator: Adobe Illustrator 21.0.2, SVG Export Plug-In . SVG Version: 6.00 Build 0)  -->
<svg version="1.1" id="Capa_1" xmlns="http://www.w3.org/2000/svg" xmlns:xlink="http://www.w3.org/1999/xlink" x="0px" y="0px"
	 viewBox="0 0 283.46 283.46" enable-background="new 0 0 283.46 283.46" xml:space="preserve">
<g>
	<g>
		<ellipse fill-rule="evenodd" clip-rule="evenodd" fill="#1E1E1C" cx="144.946" cy="130.104" rx="39.76" ry="40.023"/>
		<path fill-rule="evenodd" clip-rule="evenodd" fill="#CDCDB8" d="M117.468,130.102c0-15.277,12.306-27.66,27.476-27.66
			c15.184,0,27.48,12.383,27.48,27.66c0,15.28-12.296,27.662-27.48,27.662C129.774,157.764,117.468,145.381,117.468,130.102z"/>
		<g>
			<path fill-rule="evenodd" clip-rule="evenodd" fill="#F9B019" d="M146.297,105.187c-0.742-5.45-1.957-5.45-2.701,0l-1.278,9.375
				c-0.743,5.45-5.779,9.106-11.192,8.126l-8.987-1.629c-5.412-0.981-5.799,0.197-0.86,2.617l8.252,4.043
				c4.939,2.42,6.877,8.378,4.305,13.24l-4.392,8.303c-2.572,4.862-1.577,5.577,2.211,1.588l6.406-6.747
				c3.787-3.989,9.985-3.988,13.772,0.001l6.404,6.745c3.787,3.989,4.781,3.275,2.209-1.587l-4.394-8.305
				c-2.572-4.862-0.635-10.819,4.304-13.239l8.255-4.044c4.939-2.42,4.553-3.597-0.859-2.616l-8.989,1.629
				c-5.412,0.981-10.447-2.676-11.19-8.126L146.297,105.187z"/>
		</g>
		<ellipse fill-rule="evenodd" clip-rule="evenodd" fill="#B2B390" cx="144.945" cy="130.101" rx="9.349" ry="9.412"/>
	</g>
</g>
</svg>
