<svg id="Capa_1" data-name="Capa 1" xmlns="http://www.w3.org/2000/svg" viewBox="0 0 38.31 38.56"><defs><style>.cls-1{fill:#1d1d1b;}.cls-2{fill:#ceceb8;}.cls-3{fill:#bd1622;fill-rule:evenodd;}.cls-4{fill:#b1b28f;}</style></defs><title>wheel</title><ellipse class="cls-1" cx="19.16" cy="19.28" rx="19.16" ry="19.28"/><ellipse class="cls-2" cx="19.15" cy="19.28" rx="13.24" ry="13.33"/><path class="cls-3" d="M20.11,9.54c-.53-3.87-1.39-3.87-1.92,0a6.71,6.71,0,0,1-7.86,5.78c-3.8-.69-4.06.14-.59,1.84a6.82,6.82,0,0,1,3,9.35c-1.82,3.44-1.12,4,1.55,1.14a6.65,6.65,0,0,1,9.72,0c2.67,2.82,3.37,2.3,1.55-1.14a6.82,6.82,0,0,1,3-9.35c3.47-1.7,3.21-2.53-.59-1.84A6.71,6.71,0,0,1,20.11,9.54Z"/><ellipse class="cls-4" cx="19.15" cy="19.28" rx="4.5" ry="4.53"/></svg>